<?xml version="1.0" encoding="UTF-8"?>
<svg xmlns="http://www.w3.org/2000/svg" xmlns:xlink="http://www.w3.org/1999/xlink" width="24" height="24" viewBox="0 0 24 24" version="1.1">
    <title>Public/ic_public_view_list_filled</title>
    <defs>
        <path d="M3.75,17.25 C4.44035594,17.25 5,17.8096441 5,18.5 C5,19.1903559 4.44035594,19.75 3.75,19.75 C3.05964406,19.75 2.5,19.1903559 2.5,18.5 C2.5,17.8096441 3.05964406,17.25 3.75,17.25 Z M21,17.5 C21.5522847,17.5 22,17.9477153 22,18.5 C22,19.0522847 21.5522847,19.5 21,19.5 L8,19.5 C7.44771525,19.5 7,19.0522847 7,18.5 C7,17.9477153 7.44771525,17.5 8,17.5 L21,17.5 Z M3.75,10.75 C4.44035594,10.75 5,11.3096441 5,12 C5,12.6903559 4.44035594,13.25 3.75,13.25 C3.05964406,13.25 2.5,12.6903559 2.5,12 C2.5,11.3096441 3.05964406,10.75 3.75,10.75 Z M21,11 C21.5522847,11 22,11.4477153 22,12 C22,12.5522847 21.5522847,13 21,13 L8,13 C7.44771525,13 7,12.5522847 7,12 C7,11.4477153 7.44771525,11 8,11 L21,11 Z M3.75,4.25 C4.44035594,4.25 5,4.80964406 5,5.5 C5,6.19035594 4.44035594,6.75 3.75,6.75 C3.05964406,6.75 2.5,6.19035594 2.5,5.5 C2.5,4.80964406 3.05964406,4.25 3.75,4.25 Z M21,4.5 C21.5522847,4.5 22,4.94771525 22,5.5 C22,6.05228475 21.5522847,6.5 21,6.5 L8,6.5 C7.44771525,6.5 7,6.05228475 7,5.5 C7,4.94771525 7.44771525,4.5 8,4.5 L21,4.5 Z" id="_path-1"/>
    </defs>
    <g id="_Public/ic_public_view_list_filled" stroke="none" stroke-width="1" fill="none" fill-rule="evenodd">
        <mask id="_mask-2" fill="white">
            <use xlink:href="#_path-1"/>
        </mask>
        <use id="_形状结合" fill="#000000" fill-rule="nonzero" xlink:href="#_path-1"/>
    </g>
</svg>